<svg xmlns="http://www.w3.org/2000/svg" version="1.1" viewBox="0 0 1444 1344" width="361"
  height="336">
  <path transform="translate(1010,220)"
    d="m0 0h11l15 5 35 17 20 9 27 13 33 15 25 12 28 13 16 7 11 7 7 6 6 9 3 9v12l-4 11-7 9-9 8-4 2-6 1h-10l-10-2-6-1-9 10-11 14-14 15-11 12-12 14-12 13-6 8-8 13-8 12-20 26-11 14-10 13-14 18-11 14-13 17-11 14-13 17-28 36-20 26-28 36-13 17-14 18-10 13-11 14-20 26-11 14-13 17-14 18-10 13-14 18-11 14-20 26-11 14-10 13-16 21-20 26-12 15-13 17-14 18-13 17-12 15-20 26-14 18-10 13-16 21-13 17-12 13-9 8-5 2-11 1-13-2-8-5-9-9-5-10-20-76-11-42-12-45-26-98-13-48-12-45-18-68-7-30-5 1-11 9-14 13-12 9-9 4-8 1-10-2-10-5-8-8-6-11-1-4v-11l3-10 7-11 17-17 8-7 15-14 8-7 15-14 17-16 10-9 8-7 12-11 11-11 8-7 13-12 8-7 12-11 7-7 8-7 8-8 8-7 11-10 10-7 7-3 5-1h7l13 4 9 7 7 10 3 7 1 6 1 19 18 56 11 36 10 31 18 58 7 22v2l4-2 7-10 12-17 65-90 14-19 11-15 39-54 14-19 10-14 12-16 13-18 12-17 14-19 13-18 28-38 12-17 13-18 14-19 13-18 15-20 10-14 12-17 1-5-2-7v-9l4-11 6-9 8-7 10-4z"
    fill="#f57c00" />
</svg>